# xmcd
#
# Track frame offsets:
#	150
#	17129
#	35886
#	52868
#	75210
#	92249
#	112963
#	131639
#	149225
#	169100
#	184943
#	197578
#	212638
#
# Disc length: 3064 seconds
#
# Revision: 1
# Processed by: cddbd v1.5.1PL0 Copyright (c) Steve Scherf et al.
# Submitted via: EasyCDDAExtractor 7.0.4.1
#
DISCID=b50bf60d
DTITLE=Gunars Meijers - Vakars Krodzinjaa
DYEAR=2002
DGENRE=Latvieshi
TTITLE0=Zaljaa Pilseeta
TTITLE1=Sekretaare Ruuta
TTITLE2=Par to jums nekas nebuus
TTITLE3=Pieskaries man
TTITLE4=Kaa lai zin
TTITLE5=Nakts melodija
TTITLE6=Agraa riitaa
TTITLE7=Lauj palikt tavaa tuvmaa
TTITLE8=Viss notiek taa
TTITLE9=Galjas kombinaata bluuzs
TTITLE10=Manaa daarzaa
TTITLE11=Alus mucas dibenaa
TTITLE12=Meitene 2003
EXTD=
EXTT0=
EXTT1=
EXTT2=
EXTT3=
EXTT4=
EXTT5=
EXTT6=
EXTT7=
EXTT8=
EXTT9=
EXTT10=
EXTT11=
EXTT12=
PLAYORDER=
